<svg width="20" height="20" viewBox="0 0 20 20" fill="none" xmlns="http://www.w3.org/2000/svg">
<path d="M9.99998 4C11.5972 4 13.0694 4.34028 14.4166 5.02083C15.7639 5.70139 16.7708 6.61111 17.4375 7.75C17.5069 7.86111 17.5208 7.98611 17.4791 8.125C17.4375 8.26389 17.3611 8.36806 17.25 8.4375C17.125 8.50694 17 8.52083 16.875 8.47917C16.75 8.4375 16.6528 8.36111 16.5833 8.25C16 7.25 15.1146 6.45833 13.9271 5.875C12.7396 5.29167 11.4305 5 9.99998 5C8.56942 5 7.2604 5.29167 6.0729 5.875C4.8854 6.45833 3.99998 7.25 3.41665 8.25C3.3472 8.375 3.24998 8.45486 3.12498 8.48958C2.99998 8.52431 2.87498 8.50694 2.74998 8.4375C2.63887 8.36806 2.56248 8.26389 2.52081 8.125C2.47915 7.98611 2.49304 7.86111 2.56248 7.75C3.22915 6.61111 4.23609 5.70139 5.58331 5.02083C6.93054 4.34028 8.40276 4 9.99998 4ZM9.99998 6C11.7916 6 13.3194 6.63194 14.5833 7.89583C15.8472 9.15972 16.4791 10.6944 16.4791 12.5C16.4791 13.1944 16.2396 13.7847 15.7604 14.2708C15.2812 14.7569 14.6944 15 14 15C13.3055 15 12.7153 14.7569 12.2291 14.2708C11.743 13.7847 11.5 13.1944 11.5 12.5C11.5 12.0833 11.3541 11.7292 11.0625 11.4375C10.7708 11.1458 10.4236 11 10.0208 11C9.61804 11 9.26734 11.1458 8.96873 11.4375C8.67012 11.7292 8.52081 12.0833 8.52081 12.5C8.52081 13.9861 8.93401 15.1076 9.7604 15.8646C10.5868 16.6215 11.5 17 12.5 17C12.6389 17 12.7569 17.0486 12.8541 17.1458C12.9514 17.2431 13 17.3611 13 17.5C13 17.6389 12.9514 17.7569 12.8541 17.8542C12.7569 17.9514 12.6389 18 12.5 18C11.2778 18 10.1423 17.5313 9.09373 16.5938C8.04512 15.6563 7.52081 14.2917 7.52081 12.5C7.52081 11.8056 7.7604 11.2153 8.23956 10.7292C8.71873 10.2431 9.30554 10 9.99998 10C10.6944 10 11.2847 10.2431 11.7708 10.7292C12.2569 11.2153 12.5 11.8056 12.5 12.5C12.5 12.9167 12.6458 13.2708 12.9375 13.5625C13.2291 13.8542 13.5764 14 13.9791 14C14.3819 14 14.7326 13.8542 15.0312 13.5625C15.3298 13.2708 15.4791 12.9167 15.4791 12.5C15.4791 10.9861 14.9444 9.69097 13.875 8.61458C12.8055 7.53819 11.5139 7 9.99998 7C8.48609 7 7.19442 7.53472 6.12498 8.60417C5.05554 9.67361 4.52081 10.9722 4.52081 12.5C4.52081 12.9028 4.56248 13.2951 4.64581 13.6771C4.72915 14.059 4.85415 14.4306 5.02081 14.7917C5.09026 14.9167 5.10067 15.0417 5.05206 15.1667C5.00345 15.2917 4.91665 15.3889 4.79165 15.4583C4.66665 15.5139 4.53817 15.5174 4.40623 15.4688C4.27429 15.4201 4.18054 15.3333 4.12498 15.2083C3.93054 14.7778 3.7847 14.3368 3.68748 13.8854C3.59026 13.434 3.54165 12.9722 3.54165 12.5C3.54165 10.6944 4.17012 9.15972 5.42706 7.89583C6.68401 6.63194 8.20831 6 9.99998 6ZM9.99998 2C10.9583 2 11.8819 2.11806 12.7708 2.35417C13.6597 2.59028 14.4791 2.93056 15.2291 3.375C15.3541 3.44444 15.4305 3.54514 15.4583 3.67708C15.4861 3.80903 15.4653 3.9375 15.3958 4.0625C15.3264 4.17361 15.2257 4.25 15.0937 4.29167C14.9618 4.33333 14.8333 4.31944 14.7083 4.25C14.0416 3.84722 13.3021 3.54514 12.4896 3.34375C11.6771 3.14236 10.8472 3.04167 9.99998 3.04167C9.15276 3.04167 8.3229 3.14236 7.5104 3.34375C6.6979 3.54514 5.95831 3.84722 5.29165 4.25C5.16665 4.31944 5.03817 4.33681 4.90623 4.30208C4.77429 4.26736 4.67359 4.1875 4.60415 4.0625C4.5347 3.95139 4.51387 3.82986 4.54165 3.69792C4.56942 3.56597 4.64581 3.46528 4.77081 3.39583C5.52081 2.9375 6.34026 2.59028 7.22915 2.35417C8.11804 2.11806 9.04165 2 9.99998 2ZM9.99998 8C11.0555 8 11.9896 8.36111 12.8021 9.08333C13.6146 9.80556 14.1389 10.7431 14.375 11.8958C14.4028 12.0347 14.3785 12.1632 14.3021 12.2813C14.2257 12.3993 14.118 12.4722 13.9791 12.5C13.8403 12.5278 13.7153 12.5035 13.6041 12.4271C13.493 12.3507 13.4236 12.2431 13.3958 12.1042C13.2014 11.1875 12.7916 10.441 12.1666 9.86458C11.5416 9.28819 10.8194 9 9.99998 9C9.04165 9 8.2222 9.38889 7.54165 10.1667C6.86109 10.9444 6.52081 11.8889 6.52081 13C6.52081 13.75 6.68401 14.4792 7.0104 15.1875C7.33679 15.8958 7.77081 16.4583 8.31248 16.875C8.42359 16.9583 8.48956 17.0694 8.5104 17.2083C8.53123 17.3472 8.49998 17.4722 8.41665 17.5833C8.33331 17.6944 8.2222 17.7569 8.08331 17.7708C7.94442 17.7847 7.81942 17.75 7.70831 17.6667C7.04165 17.1389 6.5104 16.4549 6.11456 15.6146C5.71873 14.7743 5.52081 13.9028 5.52081 13C5.52081 11.6111 5.95484 10.4306 6.8229 9.45833C7.69095 8.48611 8.74998 8 9.99998 8ZM9.99998 12C10.1389 12 10.2569 12.0486 10.3541 12.1458C10.4514 12.2431 10.5 12.3611 10.5 12.5C10.5 13.5417 10.8611 14.3333 11.5833 14.875C12.3055 15.4167 13.1041 15.6875 13.9791 15.6875C14.1319 15.6875 14.2812 15.6736 14.4271 15.6458C14.5729 15.6181 14.7153 15.5903 14.8541 15.5625C14.9791 15.5347 15.1041 15.5556 15.2291 15.625C15.3541 15.6944 15.4305 15.7986 15.4583 15.9375C15.4861 16.0764 15.4653 16.2049 15.3958 16.3229C15.3264 16.441 15.2222 16.5139 15.0833 16.5417C14.8889 16.5833 14.7048 16.6181 14.5312 16.6458C14.3576 16.6736 14.1736 16.6875 13.9791 16.6875C12.6597 16.6875 11.5833 16.2847 10.75 15.4792C9.91665 14.6736 9.49998 13.6806 9.49998 12.5C9.49998 12.3611 9.54859 12.2431 9.64581 12.1458C9.74304 12.0486 9.86109 12 9.99998 12Z" fill="#333333"/>
</svg>
