<svg width="20" height="20" viewBox="0 0 20 20" fill="none" xmlns="http://www.w3.org/2000/svg">
<path d="M7.50229 11.5C7.22299 11.5 6.98611 11.4035 6.79167 11.2106C6.59722 11.0178 6.5 10.7817 6.5 10.5023C6.5 10.223 6.59646 9.98611 6.78938 9.79167C6.98215 9.59722 7.21826 9.5 7.49771 9.5C7.77701 9.5 8.01389 9.59646 8.20833 9.78938C8.40278 9.98215 8.5 10.2183 8.5 10.4977C8.5 10.777 8.40354 11.0139 8.21062 11.2083C8.01785 11.4028 7.78174 11.5 7.50229 11.5ZM12.5023 11.5C12.223 11.5 11.9861 11.4035 11.7917 11.2106C11.5972 11.0178 11.5 10.7817 11.5 10.5023C11.5 10.223 11.5965 9.98611 11.7894 9.79167C11.9822 9.59722 12.2183 9.5 12.4977 9.5C12.777 9.5 13.0139 9.59646 13.2083 9.78938C13.4028 9.98215 13.5 10.2183 13.5 10.4977C13.5 10.777 13.4035 11.0139 13.2106 11.2083C13.0178 11.4028 12.7817 11.5 12.5023 11.5ZM10.0096 16.5C11.8215 16.5 13.3563 15.8681 14.6138 14.6042C15.8713 13.3403 16.5 11.8072 16.5 10.005C16.5 9.68222 16.4653 9.31597 16.3958 8.90625C16.3264 8.49653 16.2361 8.13889 16.125 7.83333C15.8333 7.90278 15.5694 7.94792 15.3333 7.96875C15.0972 7.98958 14.8194 8 14.5 8C13.3061 8 12.1778 7.76736 11.115 7.30208C10.0522 6.83681 9.10417 6.16667 8.27083 5.29167C7.75694 6.375 7.10764 7.27083 6.32292 7.97917C5.53819 8.6875 4.61111 9.22222 3.54167 9.58333C3.52778 9.63889 3.51736 9.70833 3.51042 9.79167C3.50347 9.875 3.5 9.94444 3.5 10C3.5 11.8056 4.13194 13.3403 5.39583 14.6042C6.65972 15.8681 8.19764 16.5 10.0096 16.5ZM10 18C8.8975 18 7.86146 17.7917 6.89188 17.375C5.92229 16.9583 5.07292 16.3854 4.34375 15.6563C3.61458 14.9271 3.04167 14.0767 2.625 13.105C2.20833 12.1333 2 11.0951 2 9.99042C2 8.88569 2.20833 7.84722 2.625 6.875C3.04167 5.90278 3.61458 5.05556 4.34375 4.33333C5.07292 3.61111 5.92333 3.04167 6.895 2.625C7.86667 2.20833 8.90486 2 10.0096 2C11.1143 2 12.1528 2.21 13.1252 2.63C14.0974 3.05 14.9432 3.62 15.6625 4.34C16.3817 5.06 16.951 5.90667 17.3706 6.88C17.7902 7.85333 18 8.89333 18 10C18 11.1025 17.7917 12.1385 17.375 13.1081C16.9583 14.0777 16.3889 14.9271 15.6667 15.6563C14.9444 16.3854 14.0963 16.9583 13.1223 17.375C12.1483 17.7917 11.1075 18 10 18ZM8.85417 3.60417C9.49306 4.47917 10.3056 5.18056 11.2917 5.70833C12.2778 6.23611 13.3472 6.5 14.5 6.5C14.6667 6.5 14.8125 6.49653 14.9375 6.48958C15.0625 6.48264 15.2222 6.46549 15.4167 6.43813C14.7361 5.47938 13.9375 4.75 13.0208 4.25C12.1042 3.75 11.1006 3.5 10.0102 3.5C9.83674 3.5 9.65292 3.51042 9.45875 3.53125C9.26472 3.55208 9.06319 3.57639 8.85417 3.60417ZM3.89583 7.8125C4.6875 7.40972 5.34722 6.91319 5.875 6.32292C6.40278 5.73264 6.81944 5.02778 7.125 4.20833C6.25 4.72222 5.55556 5.26389 5.04167 5.83333C4.52778 6.40278 4.14583 7.0625 3.89583 7.8125Z" fill="#333333"/>
</svg>
