<svg width="12" height="16" viewBox="0 0 12 16" fill="none" xmlns="http://www.w3.org/2000/svg">
<path d="M1.49417 16C1.08139 16 0.729167 15.8531 0.4375 15.5594C0.145833 15.2656 0 14.9125 0 14.5V5C0 4.5875 0.146875 4.23438 0.440625 3.94063C0.734375 3.64688 1.0875 3.5 1.5 3.5H3V3.16667C3 2.33333 3.28125 1.59722 3.84375 0.958333C4.40625 0.319444 5.125 0 6 0C6.83333 0 7.54167 0.291667 8.125 0.875C8.70833 1.45833 9 2.16667 9 3V3.5H10.5C10.9125 3.5 11.2656 3.64688 11.5594 3.94063C11.8531 4.23438 12 4.5875 12 5V14.5C12 14.9125 11.8531 15.2656 11.5592 15.5594C11.2653 15.8531 10.9119 16 10.4992 16H1.49417ZM1.5 14.5H10.5V5H9V6.25C9 6.4625 8.92854 6.64063 8.78563 6.78438C8.64271 6.92813 8.46563 7 8.25438 7C8.04313 7 7.86458 6.92813 7.71875 6.78438C7.57292 6.64063 7.5 6.4625 7.5 6.25V5H4.5V6.25C4.5 6.4625 4.42854 6.64063 4.28562 6.78438C4.14271 6.92813 3.96562 7 3.75437 7C3.54312 7 3.36458 6.92813 3.21875 6.78438C3.07292 6.64063 3 6.4625 3 6.25V5H1.5V14.5ZM4.5 3.5H7.5V3C7.5 2.5875 7.35271 2.23438 7.05812 1.94063C6.76354 1.64688 6.40938 1.5 5.99563 1.5C5.58188 1.5 5.22917 1.64688 4.9375 1.94063C4.64583 2.23438 4.5 2.5875 4.5 3V3.5Z" fill="#F7F7F7"/>
</svg>
