<svg width="15" height="18" viewBox="0 0 15 18" fill="none" xmlns="http://www.w3.org/2000/svg">
<g clip-path="url(#clip0_262_30)">
<path d="M14.5308 6.13956C14.449 6.1897 12.5004 7.24779 12.5004 9.59384C12.5923 12.2694 14.9594 13.2076 15 13.2076C14.9594 13.2578 14.6426 14.4858 13.7043 15.7731C12.9596 16.882 12.1331 18 10.878 18C9.6841 18 9.25553 17.261 7.87798 17.261C6.3986 17.261 5.98001 18 4.84736 18C3.59225 18 2.70449 16.8221 1.91922 15.7236C0.899032 14.2859 0.0319048 12.0297 0.00129251 9.86341C-0.0193375 8.71545 0.205596 7.58704 0.776583 6.62856C1.58249 5.29048 3.02126 4.38214 4.59248 4.35219C5.79634 4.31247 6.86777 5.1609 7.60247 5.1609C8.30655 5.1609 9.62288 4.35219 11.1122 4.35219C11.7551 4.35284 13.4694 4.54232 14.5308 6.13956ZM7.50065 4.12299C7.28636 3.07466 7.87798 2.02633 8.429 1.35762C9.13308 0.548908 10.2451 0 11.2041 0C11.2653 1.04833 10.8773 2.07647 10.1839 2.82528C9.56166 3.63399 8.49022 4.2428 7.50065 4.12299Z" fill="black"/>
</g>
<defs>
<clipPath id="clip0_262_30">
<rect width="15" height="18" fill="white"/>
</clipPath>
</defs>
</svg>
